<svg xmlns="http://www.w3.org/2000/svg" width="648" height="400" viewBox="0 0 648 400">
  <title>
    Background
  </title>
  <defs>
    <linearGradient id="a" x1="50%" x2="50%" y1="6.001%" y2="94.526%">
      <stop stop-color="#302348" offset="0%"/>
      <stop stop-color="#593966" offset="100%"/>
    </linearGradient>
  </defs>
  <g fill="none" fill-rule="evenodd">
    <path fill="url(#a)" d="M67 32h648v400H67z" transform="translate(-67 -32)"/>
    <g transform="translate(16 15)">
      <circle cx="445.5" cy="57.5" r="10.5" stroke="#FFF" stroke-width="5" opacity=".05"/>
      <circle cx="151" cy="14" r="9" stroke="#FFF" stroke-width="5" opacity=".02"/>
      <circle cx="570" cy="21" r="7" stroke="#FFF" stroke-width="5" opacity=".04"/>
      <circle cx="201" cy="338" r="6" stroke="#FFF" stroke-width="6" opacity=".05"/>
      <g fill="#FFF" opacity=".03">
        <path d="M345.733 26.756C345.34 28.586 342.65 30 339.39 30c-3.53 0-6.39-1.66-6.39-3.707 0-2.048 2.86-3.708 6.39-3.708 1.79 0 3.406.426 4.567 1.113V11h1.826v15.756h-.05z"/>
        <path d="M344.413 11.38s2.73-1.2 4.652.664c1.923 1.863 4.935 2.618 4.935 2.618s-2.496 1.18-4.588.59-3.477-2.18-4.238-1.866c-.76.316-.76-2.007-.76-2.007z"/>
      </g>
      <g fill="#FFF" opacity=".03">
        <path d="M593.797 88.22c-.58 2.695-4.55 4.78-9.362 4.78-5.21 0-9.435-2.446-9.435-5.463 0-3.018 4.224-5.464 9.435-5.464 2.64 0 5.026.628 6.74 1.64V65h2.695v23.22h-.073z"/>
        <path d="M591.848 65.558s4.03-1.764 6.867.98c2.84 2.746 7.285 3.86 7.285 3.86s-3.685 1.737-6.773.868c-3.088-.87-5.133-3.214-6.256-2.75-1.122.466-1.122-2.958-1.122-2.958z"/>
      </g>
      <g fill="#FFF" opacity=".041">
        <path d="M389.7 344.61c-.298 1.347-2.347 2.39-4.83 2.39-2.69 0-4.87-1.223-4.87-2.732 0-1.508 2.18-2.73 4.87-2.73 1.362 0 2.594.313 3.478.818V333h1.39v11.61h-.037z"/>
        <path d="M388.696 333.28s2.08-.883 3.544.49c1.465 1.372 3.76 1.928 3.76 1.928s-1.902.87-3.496.435-2.65-1.607-3.23-1.375c-.578.233-.578-1.48-.578-1.48z"/>
      </g>
      <g fill="#D8D8D8" opacity=".045">
        <path d="M9.7 144.61c-.298 1.347-2.347 2.39-4.83 2.39-2.69 0-4.87-1.223-4.87-2.732 0-1.508 2.18-2.73 4.87-2.73 1.362 0 2.594.313 3.478.818V133h1.39v11.61h-.037z"/>
        <path d="M8.696 133.28s2.08-.883 3.544.49c1.465 1.372 3.76 1.928 3.76 1.928s-1.902.87-3.496.435-2.65-1.607-3.23-1.375c-.578.233-.578-1.48-.578-1.48z"/>
      </g>
      <path fill="#FFF" d="M300.368 352.02l4.337-4.336-3.348-3.347-4.336 4.336-4.336-4.336-3.347 3.347 4.336 4.337-4.336 4.337 3.347 3.348 4.337-4.337 4.337 4.337 3.348-3.348-4.337-4.336z" opacity=".086"/>
      <path fill="#FFF" d="M22.36 59.49l6.31-6.31-4.87-4.87-6.31 6.31-6.31-6.31-4.87 4.87 6.31 6.31-6.31 6.31 4.87 4.87 6.31-6.31 6.31 6.31 4.87-4.87-6.31-6.31z" opacity=".035"/>
      <path fill="#FFF" d="M551.174 292L563 305.427l-5.344 4.707-6.32-7.176-8.554 10.31L531 299.953l5.333-4.72 6.275 7.09M493.954 0L503 10.27l-4.088 3.6-4.834-5.488-6.542 7.885-9.013-10.183 4.08-3.61 4.8 5.423" opacity=".058"/>
      <path fill="#FFF" d="M77.652 366.59l2.623 3.974 9.725-6.42-12.104-7.827 7.16-9.44L81.263 344 71 357.53l10.295 6.655M245.402 39.536l3.314 5.02L261 36.443l-15.29-9.886 9.045-11.923L249.963 11 237 28.09l13.004 8.407" opacity=".047"/>
    </g>
  </g>
</svg>